<?xml version="1.0" standalone="no"?>
<!DOCTYPE svg PUBLIC "-//W3C//DTD SVG 20010904//EN"
 "http://www.w3.org/TR/2001/REC-SVG-20010904/DTD/svg10.dtd">
<svg version="1.0" xmlns="http://www.w3.org/2000/svg"
 width="123.000000pt" height="49.000000pt" viewBox="0 0 123.000000 49.000000"
 preserveAspectRatio="xMidYMid meet">

<g transform="translate(0.000000,49.000000) scale(0.100000,-0.100000)"
fill="#000000" stroke="none">
<path d="M201 437 c-8 -11 -4 -13 21 -9 27 4 30 2 24 -14 -4 -11 -10 -33 -13
-51 -5 -32 -26 -49 -45 -37 -6 4 -8 24 -5 47 4 30 3 37 -6 28 -19 -19 -12
-146 10 -184 23 -40 69 -49 97 -18 17 18 17 19 -3 26 -48 15 -15 25 82 25 56
0 122 5 147 11 108 25 141 27 233 8 52 -10 138 -19 197 -19 103 -1 105 -1 83
-19 -21 -18 -21 -19 -4 -35 31 -28 74 -18 95 23 22 41 28 131 13 166 l-14 30
1 -45 c1 -38 -2 -45 -18 -45 -14 0 -22 12 -32 45 -19 62 -18 63 18 58 28 -5
29 -4 13 9 -25 17 -57 17 -81 -2 -12 -10 -14 -14 -4 -13 8 2 19 -11 26 -32 7
-19 11 -36 9 -38 -5 -6 -55 22 -55 30 0 5 -7 2 -16 -6 -13 -13 -42 -16 -163
-16 -101 0 -151 -4 -159 -12 -9 -9 -12 -9 -12 0 0 9 -41 12 -154 12 -92 0
-157 4 -161 10 -4 6 -17 4 -36 -6 -17 -8 -32 -14 -34 -12 -2 2 3 21 10 42 8
22 12 43 9 48 -8 13 -61 9 -73 -5z m159 -101 c0 -7 -111 -28 -117 -23 -14 15
14 27 63 27 30 0 54 -2 54 -4z m695 -7 c13 -20 -6 -22 -68 -7 l-62 16 62 1
c34 1 65 -4 68 -10z"/>
<path d="M343 213 c9 -2 23 -2 30 0 6 3 -1 5 -18 5 -16 0 -22 -2 -12 -5z"/>
<path d="M401 178 c-1 -27 3 -48 7 -48 4 0 6 17 4 38 -5 58 -10 62 -11 10z"/>
<path d="M451 197 c-13 -21 -12 -21 5 -5 10 10 16 20 13 22 -3 3 -11 -5 -18
-17z"/>
<path d="M510 173 c0 -25 3 -43 7 -40 3 4 6 22 5 41 -1 25 3 36 16 39 12 3 11
5 -5 6 -21 1 -23 -4 -23 -46z"/>
<path d="M606 211 c-3 -4 6 -6 19 -3 14 2 25 6 25 8 0 8 -39 4 -44 -5z"/>
<path d="M710 211 c0 -6 4 -13 10 -16 6 -3 7 1 4 9 -7 18 -14 21 -14 7z"/>
<path d="M788 213 c-2 -5 -1 -26 3 -48 l6 -40 2 48 c1 44 -3 57 -11 40z"/>
<path d="M922 173 l1 -48 4 42 c3 33 8 43 26 46 18 4 17 5 -5 6 -27 1 -28 -1
-26 -46z"/>
<path d="M556 183 c-6 -14 -5 -15 5 -6 7 7 10 15 7 18 -3 3 -9 -2 -12 -12z"/>
<path d="M591 174 c0 -11 3 -14 6 -6 3 7 2 16 -1 19 -3 4 -6 -2 -5 -13z"/>
</g>
</svg>
